#!OML:ASF H:\Punching\Project 1\Capture day 1\Session 1\female.ASF
:FULLY-SPECIFIED
:DEGREES
2187
root 4.49186 14.4198 -0.0207665 15.3485 13.2504 5.4332
lowerback -4.58564 -1.78821 -3.0437
upperback -8.21968 -2.32129 0.439352
thorax -5.84274 -0.951058 2.16734
lowerneck -14.1449 1.76076 6.95525
upperneck 35.5723 2.59849 -5.36192
head 14.8625 1.37605 -3.02405
rclavicle 2.72335e-014 1.66979e-014
rhumerus 16.4133 15.7035 -61.7958
rradius 129.671
rwrist -15.6193
rhand -31.3187 8.227
rfingers 7.12502
rthumb -4.59084 -21.7033
lclavicle 2.72335e-014 1.66979e-014
lhumerus 6.60794 -25.0243 69.2494
lradius 138.153
lwrist 2.95279
lhand -23.7475 4.56713
lfingers 7.12502
lthumb 2.72119 34.5295
rfemur -53.2384 -11.1135 5.14215
rtibia 50.5965
rfoot -3.9484 -14.3929
rtoes -2.99483
lfemur -0.568473 -13.3848 -18.4023
ltibia 21.52
lfoot -212.236 206.877
ltoes -11.1384
2188
root 4.49978 14.4226 -0.0332805 15.3346 12.9449 5.42708
lowerback -4.56941 -1.74184 -3.04966
upperback -8.19517 -2.26113 0.418957
thorax -5.82976 -0.922211 2.14943
lowerneck -14.1687 1.76528 6.99449
upperneck 35.5195 2.58982 -5.3707
head 14.8432 1.37435 -3.03475
rclavicle -3.29486e-014 -8.74653e-015
rhumerus 16.3432 15.6893 -61.7953
rradius 129.641
rwrist -15.6762
rhand -31.3175 8.24168
rfingers 7.12502
rthumb -4.58968 -21.6886
lclavicle -3.29486e-014 -8.74653e-015
lhumerus 6.56635 -25.0785 69.2031
lradius 138.057
lwrist 2.83239
lhand -23.862 4.36864
lfingers 7.12502
lthumb 2.61067 34.3324
rfemur -53.2135 -10.817 5.07069
rtibia 50.2821
rfoot -3.782 -14.4502
rtoes -2.88268
lfemur -0.526119 -13.3568 -18.5667
ltibia 21.5223
lfoot -212.334 207.075
ltoes -10.9466
2189
root 4.50769 14.4253 -0.0454656 15.3271 12.636 5.42976
lowerback -4.55491 -1.69911 -3.05739
upperback -8.17337 -2.20597 0.395252
thorax -5.81846 -0.89581 2.12906
lowerneck -14.1893 1.77092 7.04132
upperneck 35.4721 2.5838 -5.38756
head 14.8263 1.3738 -3.04995
rclavicle -1.54058e-014 1.82882e-014
rhumerus 16.2744 15.6829 -61.7901
rradius 129.594
rwrist -15.7209
rhand -31.3125 8.29026
rfingers 7.12502
rthumb -4.58493 -21.6401
lclavicle -1.54058e-014 1.82882e-014
lhumerus 6.51502 -25.1391 69.1612
lradius 137.936
lwrist 2.69315
lhand -24.0148 4.11713
lfingers 7.12502
lthumb 2.46306 34.0827
rfemur -53.1902 -10.5093 4.98188
rtibia 49.9644
rfoot -3.63423 -14.5234
rtoes -2.75509
lfemur -0.479894 -13.334 -18.7407
ltibia 21.5096
lfoot -212.436 207.275
ltoes -10.7348
2190
root 4.51536 14.4277 -0.0572137 15.3304 12.3233 5.43972
lowerback -4.54617 -1.66101 -3.06987
upperback -8.15617 -2.15687 0.370747
thorax -5.80838 -0.872106 2.11042
lowerneck -14.2071 1.78086 7.09848
upperneck 35.4336 2.58561 -5.41541
head 14.814 1.37667 -3.07064
rclavicle -3.16068e-014 -6.36111e-015
rhumerus 16.2077 15.6847 -61.7773
rradius 129.534
rwrist -15.74
rhand -31.2953 8.35969
rfingers 7.12502
rthumb -4.56828 -21.5711
lclavicle -3.16068e-014 -6.36111e-015
lhumerus 6.45478 -25.2002 69.1251
lradius 137.824
lwrist 2.59082
lhand -24.1491 3.88862
lfingers 7.12502
lthumb 2.3334 33.8556
rfemur -53.1796 -10.187 4.87567
rtibia 49.6512
rfoot -3.50603 -14.615
rtoes -2.63231
lfemur -0.43535 -13.3107 -18.9189
ltibia 21.4792
lfoot -212.534 207.475
ltoes -10.5185
2191
root 4.52279 14.4298 -0.0683755 15.3477 12.005 5.45853
lowerback -4.5475 -1.62948 -3.0917
upperback -8.14424 -2.11612 0.34807
thorax -5.79742 -0.851927 2.0987
lowerneck -14.2255 1.79505 7.1614
upperneck 35.4042 2.59549 -5.45221
head 14.8072 1.38264 -3.09513
rclavicle 2.72832e-014 2.78299e-014
rhumerus 16.1467 15.6981 -61.7568
rradius 129.463
rwrist -15.7215
rhand -31.265 8.43021
rfingers 7.12502
rthumb -4.53903 -21.5012
lclavicle 2.72832e-014 2.78299e-014
lhumerus 6.37951 -25.2553 69.1028
lradius 137.733
lwrist 2.53135
lhand -24.2427 3.70166
lfingers 7.12502
lthumb 2.24293 33.6696
rfemur -53.1904 -9.85333 4.75061
rtibia 49.3499
rfoot -3.39909 -14.7231
rtoes -2.49668
lfemur -0.396293 -13.2824 -19.1011
ltibia 21.4337
lfoot -212.628 207.668
ltoes -10.299
2192
root 4.52988 14.4316 -0.0790279 15.3812 11.6795 5.4833
lowerback -4.55856 -1.60408 -3.12172
upperback -8.13913 -2.08312 0.328891
thorax -5.78749 -0.834932 2.09505
lowerneck -14.2372 1.81427 7.22807
upperneck 35.3758 2.61394 -5.49384
head 14.8002 1.39219 -3.12091
rclavicle 2.26118e-014 -1.11319e-014
rhumerus 16.088 15.7225 -61.7255
rradius 129.389
rwrist -15.6625
rhand -31.2377 8.48478
rfingers 7.12502
rthumb -4.5127 -21.4471
lclavicle 2.26118e-014 -1.11319e-014
lhumerus 6.29386 -25.3008 69.0936
lradius 137.657
lwrist 2.50107
lhand -24.3061 3.52178
lfingers 7.12502
lthumb 2.18172 33.4904
rfemur -53.2325 -9.51138 4.61204
rtibia 49.0679
rfoot -3.31298 -14.8492
rtoes -2.37118
lfemur -0.369276 -13.2467 -19.2828
ltibia 21.3786
lfoot -212.712 207.859
ltoes -10.1058
2193
root 4.5366 14.4327 -0.0893666 15.4324 11.3409 5.50957
lowerback -4.58042 -1.58305 -3.15827
upperback -8.14057 -2.05536 0.315505
thorax -5.77783 -0.819912 2.10089
lowerneck -14.2477 1.83709 7.29412
upperneck 35.3475 2.63826 -5.53653
head 14.7935 1.40396 -3.14608
rclavicle -4.8255e-014 -8.74653e-015
rhumerus 16.0277 15.7539 -61.6844
rradius 129.32
rwrist -15.5699
rhand -31.2047 8.50823
rfingers 7.12502
rthumb -4.48084 -21.4244
lclavicle -4.8255e-014 -8.74653e-015
lhumerus 6.20355 -25.3319 69.0973
lradius 137.594
lwrist 2.4949
lhand -24.339 3.34488
lfingers 7.12502
lthumb 2.14998 33.3138
rfemur -53.3146 -9.16276 4.46746
rtibia 48.8124
rfoot -3.27997 -14.9955
rtoes -2.30998
lfemur -0.359122 -13.203 -19.4606
ltibia 21.3216
lfoot -212.791 208.046
ltoes -9.93104
2194
root 4.54309 14.4328 -0.0992321 15.4959 10.9863 5.53212
lowerback -4.61168 -1.56436 -3.19539
upperback -8.14605 -2.03017 0.308987
thorax -5.76681 -0.805903 2.11402
lowerneck -14.2543 1.86088 7.35153
upperneck 35.3113 2.66337 -5.57098
head 14.7821 1.41585 -3.16582
rclavicle -4.15957e-014 -1.03368e-014
rhumerus 15.9641 15.7858 -61.6266
rradius 129.266
rwrist -15.4649
rhand -31.161 8.47375
rfingers 7.12502
rthumb -4.43856 -21.4597
lclavicle -4.15957e-014 -1.03368e-014
lhumerus 6.11885 -25.3267 69.1157
lradius 137.598
lwrist 2.61891
lhand -24.2256 3.28026
lfingers 7.12502
lthumb 2.25947 33.248
rfemur -53.4358 -8.8198 4.33009
rtibia 48.5909
rfoot -3.34566 -15.1483
rtoes -2.39695
lfemur -0.362265 -13.1509 -19.6325
ltibia 21.2715
lfoot -212.872 208.232
ltoes -9.78626
2195
root 4.54951 14.4318 -0.10846 15.5609 10.6173 5.54146
lowerback -4.64524 -1.54754 -3.22041
upperback -8.15309 -2.00717 0.310707
thorax -5.75607 -0.79343 2.12896
lowerneck -14.2616 1.88608 7.40543
upperneck 35.2729 2.6903 -5.60284
head 14.7699 1.42826 -3.18347
rclavicle 1.72446e-014 -4.77083e-015
rhumerus 15.8911 15.8161 -61.5532
rradius 129.231
rwrist -15.3664
rhand -31.1312 8.41751
rfingers 7.12502
rthumb -4.40981 -21.5166
lclavicle 1.72446e-014 -4.77083e-015
lhumerus 6.04707 -25.3003 69.1434
lradius 137.614
lwrist 2.75696
lhand -24.0847 3.23383
lfingers 7.12502
lthumb 2.39559 33.2001
rfemur -53.5871 -8.49336 4.21747
rtibia 48.4102
rfoot -3.54712 -15.2951
rtoes -2.65441
lfemur -0.37054 -13.0928 -19.7915
ltibia 21.2371
lfoot -212.968 208.418
ltoes -9.65317
